<svg width="179" height="77" viewBox="0 0 179 77" fill="none" xmlns="http://www.w3.org/2000/svg">
<path d="M49.3239 0.00914251C39.361 0.249936 33.0514 5.4477 33.0514 16.9847C33.0514 24.0755 37.04 31.1703 48.5869 31.1703C52.2203 31.1703 56.3694 30.6053 59.6049 28.8964C59.8727 28.7574 59.9183 27.6784 60.7625 24.1135C60.9411 23.3635 61.3276 21.9716 61.0313 21.6276C60.6305 21.1596 60.0769 22.7055 59.4729 24.4455C58.1358 28.2894 53.2203 29.1404 50.6534 29.1404C43.492 29.1404 40.6763 21.7126 40.6763 15.5217C40.6763 6.89126 44.8196 2.02609 51.0836 2.05209C53.1482 2.06189 56.2004 3.14756 57.4235 4.11223C57.6771 4.31133 58.6457 7.01276 58.848 7.58474C59.2488 8.70791 59.6505 9.97688 60.1415 10.2079C60.9183 10.5819 60.2887 7.78594 60.1633 6.61997L59.6324 1.7138C56.9952 0.664825 54.1776 0.137639 51.3638 0.0263421C50.6686 -0.00125722 49.9877 -0.007257 49.3239 0.00874258V0.00914251ZM169.589 0.288435C163.748 0.288435 157.946 4.26653 157.946 11.3581C157.946 16.047 161.146 18.525 164.964 19.2739L166.92 19.6859C167.813 19.8719 169.247 20.1069 169.437 21.4399C169.712 23.2248 168.725 23.7868 166.721 23.7368C164.48 23.6878 162.115 22.4079 160.358 20.9049L159.864 20.4539L157.015 28.3907C160.045 30.1157 163.967 31.1316 167.348 31.1316C173.16 31.1316 179 27.6017 179 20.4729C179 15.41 176.009 12.9341 171.878 11.9211L169.665 11.3581C168.915 11.1671 167.709 10.7942 167.433 9.90318C166.806 7.81074 168.763 7.33815 169.617 7.37215C172.219 7.47155 174.28 8.91921 175.638 9.94818L178.107 2.91527C175.477 1.11141 172.656 0.288335 169.589 0.288335V0.288435ZM1.47999 0.710324C0.675094 0.667025 1.12577 1.34311 1.12577 1.34311L3.79849 2.39778C4.68737 2.72857 4.40133 2.65217 4.40133 5.4661V21.5997C4.40133 31.1704 14.8808 31.1704 15.9473 31.1704C18.1923 31.1704 29.7107 31.4374 29.7107 19.5177L29.7212 4.27613C29.7212 2.63507 29.7212 3.00906 31.1457 2.35448L33.327 1.37021C33.7287 0.87642 33.1514 0.754923 33.1514 0.754923C26.4904 1.34821 23.819 0.829221 23.819 0.829221C23.819 0.829221 23.0631 0.990817 23.6861 1.5792L25.5332 2.25878C26.7829 2.82157 26.9596 2.39668 26.8722 3.87984L26.858 19.6404C26.858 21.2924 26.7829 28.7262 18.6206 28.7262C12.7071 28.7262 10.7992 23.8973 10.7992 19.9964L10.747 4.08884C10.7925 2.25828 10.5675 2.86917 12.2607 2.07099L14.3975 1.41281C14.821 0.920819 14.1762 0.754623 14.1762 0.754623C6.82629 1.31951 3.66345 0.827221 1.48018 0.709724L1.47999 0.710324ZM65.584 0.776722V30.6689L78.0207 30.6839C85.9675 30.6839 91.6294 25.0181 91.6294 16.1613C91.6294 5.16961 84.6845 0.776722 75.5962 0.776722L65.584 0.776922V0.776722ZM100.248 0.776722L90.956 30.6839H101.292L102.071 26.929H109.45L110.428 30.6839H120.76L111.083 0.776722L100.248 0.776922V0.776722ZM115.081 0.776722L125.452 30.6839H133.714L144.122 0.776722L133.932 0.776922L129.583 18.8234L125.233 0.776922L115.081 0.777122V0.776722ZM145.138 0.776722V30.6839H154.919V0.776722L145.138 0.776922V0.776722ZM105.775 9.40929C105.955 10.6823 107.74 19.835 107.74 19.835H103.828L105.775 9.40929V9.40929ZM75.4177 9.57529H76.0416C79.6408 9.57529 81.7966 11.9192 81.7966 16.1221C81.7966 20.024 79.3664 22.097 76.0882 22.097H75.4177V9.57529V9.57529Z" fill="#DAAA00"/>
<line y1="-1" x2="177.594" y2="-1" transform="matrix(1 0 -8.91855e-05 1 0.998764 37.4709)" stroke="black" stroke-width="2"/>
<path d="M62.1961 69H58.6805L51.8367 57.7734V69H48.3211V51.9375H51.8367L58.6922 63.1875V51.9375H62.1961V69ZM71.182 62.9883V69H67.6664V51.9375H74.3227C75.6039 51.9375 76.7289 52.1719 77.6977 52.6406C78.6742 53.1094 79.4242 53.7773 79.9477 54.6445C80.4711 55.5039 80.7328 56.4844 80.7328 57.5859C80.7328 59.2578 80.1586 60.5781 79.0102 61.5469C77.8695 62.5078 76.2875 62.9883 74.2641 62.9883H71.182ZM71.182 60.1406H74.3227C75.2523 60.1406 75.9594 59.9219 76.4437 59.4844C76.9359 59.0469 77.182 58.4219 77.182 57.6094C77.182 56.7734 76.9359 56.0977 76.4437 55.582C75.9516 55.0664 75.2719 54.8008 74.4047 54.7852H71.182V60.1406ZM94.4062 64.5234C94.4062 63.8594 94.1719 63.3516 93.7031 63C93.2344 62.6406 92.3906 62.2656 91.1719 61.875C89.9531 61.4766 88.9883 61.0859 88.2773 60.7031C86.3398 59.6562 85.3711 58.2461 85.3711 56.4727C85.3711 55.5508 85.6289 54.7305 86.1445 54.0117C86.668 53.2852 87.4141 52.7188 88.3828 52.3125C89.3594 51.9062 90.4531 51.7031 91.6641 51.7031C92.8828 51.7031 93.9688 51.9258 94.9219 52.3711C95.875 52.8086 96.6133 53.4297 97.1367 54.2344C97.668 55.0391 97.9336 55.9531 97.9336 56.9766H94.418C94.418 56.1953 94.1719 55.5898 93.6797 55.1602C93.1875 54.7227 92.4961 54.5039 91.6055 54.5039C90.7461 54.5039 90.0781 54.6875 89.6016 55.0547C89.125 55.4141 88.8867 55.8906 88.8867 56.4844C88.8867 57.0391 89.1641 57.5039 89.7188 57.8789C90.2812 58.2539 91.1055 58.6055 92.1914 58.9336C94.1914 59.5352 95.6484 60.2812 96.5625 61.1719C97.4766 62.0625 97.9336 63.1719 97.9336 64.5C97.9336 65.9766 97.375 67.1367 96.2578 67.9805C95.1406 68.8164 93.6367 69.2344 91.7461 69.2344C90.4336 69.2344 89.2383 68.9961 88.1602 68.5195C87.082 68.0352 86.2578 67.375 85.6875 66.5391C85.125 65.7031 84.8438 64.7344 84.8438 63.6328H88.3711C88.3711 65.5156 89.4961 66.457 91.7461 66.457C92.582 66.457 93.2344 66.2891 93.7031 65.9531C94.1719 65.6094 94.4062 65.1328 94.4062 64.5234ZM112.357 65.4844H106.193L105.021 69H101.283L107.634 51.9375H110.892L117.279 69H113.541L112.357 65.4844ZM107.142 62.6367H111.408L109.263 56.25L107.142 62.6367ZM132.71 54.7852H127.484V69H123.968V54.7852H118.812V51.9375H132.71V54.7852Z" fill="black"/>
</svg>
