<?xml version="1.0" encoding="UTF-8" standalone="no"?>
<svg xmlns:rdf="http://www.w3.org/1999/02/22-rdf-syntax-ns#" xmlns="http://www.w3.org/2000/svg" xml:space="preserve" height="33.171" viewBox="0 0 189.43498 33.17054" width="189.43" version="1.1" xmlns:cc="http://creativecommons.org/ns#" xmlns:dc="http://purl.org/dc/elements/1.1/">
<g transform="matrix(1.25 0 0 -1.25 -286.29 512.67)">
<path d="m51.838 1.0566c-10.491 0.2408-17.135 5.4387-17.135 16.976 0 7.091 4.2 14.186 16.359 14.186 3.826 0 8.195-0.565 11.602-2.274 0.282-0.139 0.33-1.218 1.219-4.783 0.188-0.75 0.595-2.142 0.283-2.486-0.422-0.468-1.005 1.078-1.641 2.818-1.408 3.844-6.584 4.695-9.287 4.695-7.541 0-10.506-7.428-10.506-13.619 0-8.6307 4.363-13.496 10.959-13.47 2.174 0.0098 5.388 1.0955 6.676 2.0602 0.267 0.1991 1.287 2.9006 1.5 3.4726 0.422 1.1232 0.845 2.3922 1.362 2.6232 0.818 0.374 0.155-2.422 0.023-3.588l-0.559-4.9063c-2.777-1.049-5.744-1.5762-8.707-1.6875-0.732-0.0276-1.449-0.0336-2.148-0.0176zm126.64 0.2793c-6.15 0-12.26 3.9782-12.26 11.07 0 4.689 3.37 7.167 7.39 7.916l2.06 0.412c0.94 0.186 2.45 0.421 2.65 1.754 0.29 1.785-0.75 2.347-2.86 2.297-2.36-0.049-4.85-1.329-6.7-2.832l-0.52-0.451-3 7.937c3.19 1.725 7.32 2.741 10.88 2.741 6.12 0 12.27-3.53 12.27-10.659 0-5.063-3.15-7.539-7.5-8.552l-2.33-0.563c-0.79-0.191-2.06-0.564-2.35-1.455-0.66-2.0925 1.4-2.5651 2.3-2.5311 2.74 0.0994 4.91 1.5471 6.34 2.5761l2.6-7.0331c-2.77-1.8039-5.74-2.627-8.97-2.627zm-177.02 0.4219c-0.84756-0.0433-0.373 0.6328-0.373 0.6328l2.8144 1.0547c0.936 0.3308 0.6348 0.2544 0.6348 3.0684v16.134c0 9.571 11.035 9.571 12.158 9.571 2.364 0 14.493 0.267 14.493-11.653l0.011-15.242c0-1.6411 0-1.2671 1.5-1.9217l2.297-0.9843c0.423-0.4938-0.185-0.6153-0.185-0.6153-7.014 0.5933-9.827 0.0743-9.827 0.0743s-0.796 0.1616-0.14 0.75l1.945 0.6796c1.316 0.5628 1.502 0.1379 1.41 1.6211l-0.015 15.761c0 1.652-0.079 9.086-8.674 9.086-6.227 0-8.236-4.829-8.236-8.73l-0.055-15.908c0.048-1.8306-0.189-1.2197 1.594-2.0179l2.25-0.6582c0.446-0.492-0.233-0.6582-0.233-0.6582-7.7395 0.5649-11.07 0.0726-13.369-0.0449zm67.502 0.0664v29.893l13.096 0.015c8.368 0 14.33-5.666 14.33-14.523 0-10.992-7.313-15.385-16.883-15.385l-10.543 0.0002zm36.501 0l-9.784 29.908h10.884l0.82-3.755h7.77l1.03 3.755h10.88l-10.19-29.908-11.41 0.0002zm15.62 0l10.92 29.908h8.7l10.96-29.908-10.73 0.0002-4.58 18.047-4.58-18.047-10.69 0.0002zm31.65 0v29.908h10.3v-29.908l-10.3 0.0002zm-41.45 8.6328c0.19 1.273 2.07 10.426 2.07 10.426h-4.12l2.05-10.426zm-31.966 0.166h0.657c3.79 0 6.06 2.344 6.06 6.547 0 3.902-2.559 5.975-6.011 5.975h-0.706v-12.522z" transform="matrix(.8 0 0 -.8 229.03 410.14)" fill="#daaa00"/>
</g>
</svg>
